<svg id="tuon-logo" xmlns="http://www.w3.org/2000/svg" width="536" height="94.248" viewBox="0 0 536 94.248">
  <path id="Path_111" data-name="Path 111" d="M0,0H97.927V28.226H0ZM33.129,13.622H64.791V92.036H33.129V13.622Z" fill="#75cc66"/>
  <path id="Path_112" data-name="Path 112" d="M189.4,49.823a19.405,19.405,0,0,0,1.782,8.655,12.406,12.406,0,0,0,5.462,5.584,19.992,19.992,0,0,0,9.449,1.961,21.01,21.01,0,0,0,9.571-1.9,11.7,11.7,0,0,0,5.4-5.584,20.426,20.426,0,0,0,1.718-8.712V0h31.662V51.541q0,12.885-6.013,22.456a40.538,40.538,0,0,1-16.872,14.911Q220.7,94.244,206.1,94.248c-9.735,0-18.1-1.782-25.341-5.34A40.933,40.933,0,0,1,163.817,74q-6.077-9.567-6.077-22.456V0H189.4V49.823Z" transform="translate(-44.823)" fill="#75cc66"/>
  <path id="Path_113" data-name="Path 113" d="M497.665,22.427A40.229,40.229,0,0,0,482.754,5.92Q473.187,0,460.3,0H357.217q-12.885,0-22.456,5.92A40.233,40.233,0,0,0,319.85,22.427q-5.337,10.587-5.34,24.7c0,9.406,1.782,17.76,5.34,24.818a39.744,39.744,0,0,0,14.911,16.443q9.567,5.863,22.456,5.863H460.3q12.885,0,22.456-5.863a39.881,39.881,0,0,0,14.911-16.443q5.337-10.587,5.34-24.818c0-9.492-1.782-17.638-5.34-24.7Zm-24.79,35.491a11.7,11.7,0,0,1-5.584,5.4,20.426,20.426,0,0,1-8.712,1.718H358.935a20.426,20.426,0,0,1-8.712-1.718,11.7,11.7,0,0,1-5.584-5.4,20.856,20.856,0,0,1-1.9-9.571A19.757,19.757,0,0,1,344.7,38.9a12.443,12.443,0,0,1,5.584-5.462,19.405,19.405,0,0,1,8.655-1.782H458.58a19.405,19.405,0,0,1,8.655,1.782,12.406,12.406,0,0,1,5.584,5.462,19.992,19.992,0,0,1,1.961,9.449A21.01,21.01,0,0,1,472.875,57.919Z" transform="translate(-89.371 0)" fill="#75cc66"/>
  <path id="Path_114" data-name="Path 114" d="M684.055,68.964l-8.59,2.083V0h30.681V92.036H666.51L620.861,21.11l8.59-2.083V92.043H598.77V0h40.86Z" transform="translate(-170.146)" fill="#75cc66"/>
</svg>
