<?xml version="1.0" encoding="UTF-8"?>
<svg id="Layer_1" data-name="Layer 1" xmlns="http://www.w3.org/2000/svg" viewBox="0 0 748.77 131.65">
  <defs>
    <style>
      .cls-1 {
        fill: #231f20;
        stroke-width: 0px;
      }
    </style>
  </defs>
  <path class="cls-1" d="M0,0h136.8v39.43H0V0ZM46.28,19.03h44.23v109.54h-44.23V19.03Z"/>
  <path class="cls-1" d="M201.97,69.6c0,4.69.83,8.72,2.49,12.09,1.65,3.37,4.2,5.97,7.63,7.8,3.43,1.83,7.83,2.74,13.2,2.74s9.94-.88,13.37-2.66c3.43-1.77,5.94-4.37,7.54-7.8,1.6-3.43,2.4-7.48,2.4-12.17V0h44.23v72c0,12-2.8,22.46-8.4,31.37-5.6,8.91-13.46,15.86-23.57,20.83-10.11,4.97-21.97,7.46-35.57,7.46s-25.28-2.49-35.4-7.46c-10.11-4.97-18-11.91-23.66-20.83-5.66-8.91-8.49-19.37-8.49-31.37V0h44.23v69.6Z"/>
  <path class="cls-1" d="M570.37,31.33c-4.97-9.86-11.91-17.54-20.83-23.06-8.91-5.51-19.37-8.27-31.37-8.27h-144c-12,0-22.46,2.76-31.37,8.27-8.91,5.51-15.86,13.2-20.83,23.06-4.97,9.86-7.46,21.36-7.46,34.5s2.49,24.81,7.46,34.67c4.97,9.86,11.91,17.52,20.83,22.97,8.91,5.46,19.37,8.19,31.37,8.19h144c12,0,22.46-2.73,31.37-8.19,8.91-5.46,15.86-13.12,20.83-22.97,4.97-9.86,7.46-21.41,7.46-34.67s-2.49-24.64-7.46-34.5ZM535.74,80.91c-1.77,3.43-4.37,5.94-7.8,7.54-3.43,1.6-7.48,2.4-12.17,2.4h-139.2c-4.69,0-8.74-.8-12.17-2.4-3.43-1.6-6.03-4.11-7.8-7.54-1.77-3.43-2.66-7.88-2.66-13.37s.91-9.77,2.74-13.2c1.83-3.43,4.43-5.97,7.8-7.63,3.37-1.66,7.4-2.49,12.09-2.49h139.2c4.69,0,8.72.83,12.09,2.49,3.37,1.65,5.97,4.2,7.8,7.63,1.83,3.43,2.74,7.83,2.74,13.2s-.88,9.94-2.66,13.37Z"/>
  <path class="cls-1" d="M717.91,96.34l-12,2.91V0h42.86v128.57h-55.37l-63.77-99.08,12-2.91v102h-42.86V0h57.08l62.06,96.34Z"/>
</svg>